<svg width="40" height="40" viewBox="0 0 40 40" fill="none" xmlns="http://www.w3.org/2000/svg">
<path d="M8.88188 32.3666C8.69855 32.3666 8.49855 32.3166 8.33188 32.2333L4.63188 30.3833C4.21521 30.1666 3.94855 29.7333 3.94855 29.2666V24.6333C3.94855 23.95 4.51521 23.3833 5.19855 23.3833C5.88188 23.3833 6.44855 23.95 6.44855 24.6333V28.4833L9.46521 29.9833C10.0819 30.3 10.3319 31.05 10.0319 31.6666C9.78186 32.1 9.34855 32.3666 8.88188 32.3666Z" fill="#7DF5CA"/>
<path d="M19.9992 37.9167C19.8992 37.9167 19.7992 37.9 19.7158 37.8833C19.6158 37.8667 19.5158 37.8167 19.4158 37.7667L15.7325 35.9333C15.1158 35.6167 14.8658 34.8667 15.1658 34.25C15.4825 33.6333 16.2325 33.3833 16.8492 33.6833L18.7492 34.6333V32.0333C18.7492 31.35 19.3158 30.7833 19.9992 30.7833C20.6825 30.7833 21.2492 31.35 21.2492 32.0333V34.6333L23.1492 33.6833C23.7658 33.3833 24.5158 33.6333 24.8325 34.25C25.1492 34.8667 24.8992 35.6167 24.2658 35.9333L20.5825 37.7667C20.4825 37.8167 20.3825 37.85 20.2825 37.8833C20.1825 37.9 20.0992 37.9167 19.9992 37.9167Z" fill="#386FFD"/>
<path d="M31.117 32.3667C30.667 32.3667 30.217 32.1167 30.0004 31.6834C29.6837 31.0667 29.9337 30.3167 30.567 30L33.5837 28.5002V24.65C33.5837 23.9667 34.1504 23.4 34.8337 23.4C35.517 23.4 36.0837 23.9667 36.0837 24.65V29.2835C36.0837 29.7502 35.817 30.1835 35.4004 30.4002L31.7004 32.2502C31.4837 32.3169 31.3004 32.3667 31.117 32.3667Z" fill="#7DF5CA"/>
<path d="M19.9992 24.0333C19.3158 24.0333 18.7492 23.4667 18.7492 22.7833V18.9333L15.7325 17.4335C15.1158 17.1168 14.8658 16.3667 15.1658 15.7501C15.4825 15.1334 16.2325 14.8834 16.8492 15.1834L19.9992 16.75L23.1492 15.1834C23.7658 14.8834 24.5158 15.1167 24.8325 15.7501C25.1492 16.3667 24.8992 17.1168 24.2658 17.4335L21.2492 18.9333V22.7833C21.2492 23.4667 20.6825 24.0333 19.9992 24.0333Z" fill="#386FFD"/>
<path d="M5.18231 16.6164C4.49898 16.6164 3.93231 16.0498 3.93231 15.3664V10.7664V10.7497C3.93231 10.6497 3.94896 10.5497 3.96563 10.4664C3.99896 10.3331 4.04898 10.2164 4.11565 10.0997C4.16565 10.0164 4.21563 9.94974 4.2823 9.88307C4.34896 9.8164 4.4323 9.74975 4.51563 9.69975C4.54896 9.68309 4.59896 9.64974 4.6323 9.63307L8.31563 7.79974C8.93229 7.49974 9.6823 7.73309 9.99896 8.36642C10.3156 8.98309 10.0656 9.73307 9.43231 10.0497L7.96563 10.7831L9.43231 11.5164C10.049 11.8331 10.299 12.5831 9.99896 13.1997C9.69896 13.8164 8.93229 14.0664 8.31563 13.7664L6.41563 12.8164V15.4164C6.4323 16.0664 5.8823 16.6164 5.18231 16.6164Z" fill="#7DF5CA"/>
<path d="M23.6997 6.43344C23.5163 6.43344 23.3163 6.38344 23.1497 6.30011L19.9997 4.73344L16.8497 6.30011C16.233 6.61677 15.483 6.36677 15.1663 5.73344C14.8496 5.11677 15.0996 4.36676 15.733 4.05009L19.433 2.20012C19.783 2.01679 20.1997 2.01679 20.5497 2.20012L24.2497 4.05009C24.8663 4.36676 25.1163 5.11677 24.8163 5.73344C24.5997 6.18344 24.1663 6.43344 23.6997 6.43344Z" fill="#386FFD"/>
<path d="M34.8173 16.6167C34.134 16.6167 33.5673 16.05 33.5673 15.3667V12.7667L31.6673 13.7167C31.0507 14.0333 30.3007 13.7833 29.984 13.15C29.6673 12.5333 29.9173 11.7834 30.5507 11.4667L32.0173 10.7334L30.5507 10C29.934 9.68335 29.684 8.93336 29.984 8.3167C30.284 7.70003 31.0507 7.45001 31.6673 7.75001L35.3507 9.58335C35.384 9.60001 35.434 9.61668 35.4673 9.65001C35.5673 9.70001 35.6507 9.78335 35.734 9.86668C35.784 9.93335 35.834 10 35.884 10.0667C35.9507 10.1833 36.0007 10.3 36.034 10.4333C36.0507 10.5333 36.0673 10.6333 36.0673 10.7167V10.7334V15.3333C36.0673 16.0667 35.5007 16.6167 34.8173 16.6167Z" fill="#7DF5CA"/>
</svg>
